<?xml version="1.0" encoding="utf-8"?>
<!-- Generator: Adobe Illustrator 23.1.1, SVG Export Plug-In . SVG Version: 6.00 Build 0)  -->
<svg version="1.1" id="Layer_1" xmlns="http://www.w3.org/2000/svg" xmlns:xlink="http://www.w3.org/1999/xlink" x="0px" y="0px"
	 viewBox="0 0 1024 1024" style="enable-background:new 0 0 1024 1024;" xml:space="preserve">
<style type="text/css">
	.st0{fill:#FFFFFF;}
</style>
<g>
	<path class="st0" d="M173.91,561.93c0,29.26-23.81,53.07-53.07,53.07c-29.26,0-53.07-23.81-53.07-53.07v-220.7H0v220.7
		c0,66.63,54.21,120.83,120.83,120.83c66.63,0,120.83-54.21,120.83-120.83v-220.7h-67.76V561.93z"/>
	<path class="st0" d="M903.17,341.23c-66.63,0-120.83,54.2-120.83,120.83v111.37v67.76v41.56h67.76V641.2h106.14v41.56H1024V641.2
		v-67.76V462.07C1024,395.44,969.79,341.23,903.17,341.23z M850.1,573.44V462.07c0-29.26,23.81-53.07,53.07-53.07
		c29.26,0,53.07,23.81,53.07,53.07v111.37H850.1z"/>
	<path class="st0" d="M598.95,341.23c-34.11,0-64.96,14.21-86.95,37.02c-21.99-22.81-52.84-37.02-86.95-37.02
		c-66.63,0-120.83,54.2-120.83,120.83v220.7h67.76v-220.7c0-29.26,23.81-53.07,53.07-53.07c29.26,0,53.07,23.81,53.07,53.07v220.7
		h67.76v-220.7c0-29.26,23.81-53.07,53.07-53.07c29.26,0,53.07,23.81,53.07,53.07v220.7h67.76v-220.7
		C719.78,395.44,665.58,341.23,598.95,341.23z"/>
</g>
</svg>
