<?xml version="1.0" encoding="utf-8"?>
<!-- Generator: Adobe Illustrator 23.1.1, SVG Export Plug-In . SVG Version: 6.00 Build 0)  -->
<svg version="1.1" id="Layer_1" xmlns="http://www.w3.org/2000/svg" xmlns:xlink="http://www.w3.org/1999/xlink" x="0px" y="0px"
	 viewBox="0 0 1024 1024" style="enable-background:new 0 0 1024 1024;" xml:space="preserve">
<style type="text/css">
	.st0{fill:#FFFFFF;}
</style>
<g id="B3_x5F_Icon_1_">
	<path class="st0" d="M934.54,223.26c28-37.57,25.31-90.93-8.78-125.02c-34.06-34.09-87.4-36.77-125.01-8.77
		C718.49,33.08,619.05,0,512,0C229.68,0,0,229.68,0,512c0,107.05,33.08,206.48,89.46,288.74c-28,37.57-25.31,90.93,8.78,125.02
		c18.7,18.72,43.28,28.06,67.86,28.06c20.19,0,40.19-6.66,57.15-19.29C305.51,990.92,404.95,1024,512,1024
		c282.32,0,512-229.68,512-512C1024,404.95,990.92,305.52,934.54,223.26z M899.9,124.1c18.13,18.13,21.86,45.09,11.11,67.59
		c-23.37-29.05-49.83-55.5-78.89-78.85C854.25,102.18,881.58,105.78,899.9,124.1z M124.1,899.9
		c-18.13-18.13-21.86-45.09-11.11-67.59c23.37,29.05,49.82,55.49,78.88,78.84C169.73,921.8,142.4,918.2,124.1,899.9z M512,987.43
		C249.85,987.43,36.57,774.15,36.57,512S249.85,36.57,512,36.57S987.43,249.85,987.43,512S774.15,987.43,512,987.43z"/>
	<path class="st0" d="M805.05,218.95C726.78,140.67,622.71,97.56,512,97.56s-214.78,43.11-293.05,121.38
		C140.67,297.22,97.56,401.29,97.56,512s43.11,214.78,121.38,293.05C297.22,883.33,401.29,926.44,512,926.44
		s214.78-43.11,293.05-121.38C883.33,726.78,926.44,622.71,926.44,512S883.33,297.22,805.05,218.95z M258.36,791.5l77.47-77.47
		c7.14-7.14,7.14-18.71,0-25.86c-7.14-7.14-18.71-7.14-25.86,0l-77.47,77.47c-63.33-69.65-98.37-158.85-98.37-253.64
		s35.04-183.99,98.37-253.64l77.47,77.47c3.57,3.57,8.25,5.36,12.93,5.36s9.36-1.79,12.93-5.36c7.14-7.14,7.14-18.71,0-25.86
		l-77.47-77.47c69.65-63.33,158.85-98.37,253.64-98.37s183.99,35.04,253.64,98.37l-77.47,77.47c-7.14,7.14-7.14,18.71,0,25.86
		c3.57,3.57,8.25,5.36,12.93,5.36c4.68,0,9.36-1.79,12.93-5.36l77.47-77.47c63.33,69.65,98.37,158.85,98.37,253.64
		s-35.04,183.99-98.37,253.64l-77.47-77.47c-7.14-7.14-18.71-7.14-25.86,0s-7.14,18.71,0,25.86l77.47,77.47
		c-69.65,63.33-158.85,98.37-253.64,98.37S328.01,854.82,258.36,791.5z"/>
	<path class="st0" d="M597.53,241.78c-7.94-2.48-16.62,0.68-21.04,7.78L431.95,481.91c-0.08,0.12-0.06,0.28-0.14,0.4
		c-0.71,1.2-0.91,2.57-1.33,3.9c-0.41,1.32-1.04,2.55-1.15,3.92c-0.01,0.14-0.11,0.26-0.12,0.41l-15.48,273.21
		c-0.47,8.35,4.78,15.95,12.74,18.47c1.82,0.57,3.68,0.85,5.52,0.85c6.19,0,12.13-3.15,15.53-8.63l144.54-232.36
		c0.08-0.12,0.06-0.28,0.14-0.4c0.71-1.2,0.91-2.57,1.33-3.9c0.41-1.32,1.04-2.55,1.15-3.92c0.01-0.14,0.11-0.26,0.12-0.41
		l15.48-273.21C610.74,251.9,605.49,244.3,597.53,241.78z M569.7,329.7l-10.1,178.2l-84.17-26.65L569.7,329.7z M454.3,694.3
		l10.1-178.2l84.17,26.65L454.3,694.3z"/>
</g>
</svg>
