<?xml version="1.0" encoding="utf-8"?>
<!-- Generator: Adobe Illustrator 23.1.1, SVG Export Plug-In . SVG Version: 6.00 Build 0)  -->
<svg version="1.1" id="Layer_1" xmlns="http://www.w3.org/2000/svg" xmlns:xlink="http://www.w3.org/1999/xlink" x="0px" y="0px"
	 viewBox="0 0 1024 1024" style="enable-background:new 0 0 1024 1024;" xml:space="preserve">
<style type="text/css">
	.st0{fill:#FFFFFF;}
</style>
<g>
	<path class="st0" d="M371.2,521.14c0-65.65-53.58-119.22-119.41-119.22c-65.65,0-119.22,53.58-119.22,119.22
		c0,65.83,53.58,119.41,119.22,119.41C317.62,640.55,371.2,586.97,371.2,521.14z M169.14,521.14c0-45.53,37.12-82.65,82.65-82.65
		c45.71,0,82.83,37.12,82.83,82.65c0,45.71-37.12,82.83-82.83,82.83C206.26,603.98,169.14,566.86,169.14,521.14z"/>
	<path class="st0" d="M922.15,134.77c0-38.03-30.9-68.94-68.94-68.94s-68.94,30.9-68.94,68.94s30.9,68.94,68.94,68.94
		S922.15,172.8,922.15,134.77z M820.85,134.77c0-17.74,14.63-32.37,32.37-32.37c17.92,0,32.37,14.63,32.37,32.37
		c0,17.92-14.45,32.37-32.37,32.37C835.47,167.13,820.85,152.69,820.85,134.77z"/>
	<path class="st0" d="M908.98,309.94c34.74-54.31,78.45-131.47,78.45-175.18C987.43,60.34,927.27,0,853.21,0
		c-73.87,0-134.03,60.34-134.03,134.77c0,43.7,43.52,120.87,78.26,175.18c-33.28,11.52-54.67,33.28-54.67,59.61
		c0,35.11,38.4,62.35,92.16,67.29c0.01,0,0.02,0,0.03,0v33.13c0,46.36-37.42,84.07-83.41,84.07h-66.18
		c-56.2,0-101.92,45.98-101.92,102.48c0,56.5,45.72,102.46,101.92,102.46h5.26c39.15,0,71,32.11,71,71.59
		c0,39.48-31.85,71.59-71,71.59H424.39c-9.72-33.99-46.82-61.76-97.81-75.47c59.06-91.61,140.62-231.13,140.62-305.55
		c0-119.41-96.55-216.5-215.41-216.5c-118.67,0-215.22,97.1-215.22,216.5c0,74.42,81.37,213.94,140.43,305.55
		c-59.79,16.09-100.39,51.57-100.39,93.81c0,57.97,76.98,103.5,175.18,103.5c87.77,0,158.35-36.21,172.62-85.21
		c0.01-0.01,0.01-0.03,0.01-0.05h266.2c59.31,0,107.57-48.52,107.57-108.16c0-59.64-48.26-108.16-107.57-108.16h-5.26
		c-36.04,0-65.35-29.55-65.35-65.89c0-36.34,29.31-65.91,65.35-65.91h66.18c66.16,0,119.98-54.12,119.98-120.64v-33.13
		c53.74-4.95,92.31-32.19,92.31-67.29C963.84,343.22,942.26,321.28,908.98,309.94z M73.14,521.14
		c0-99.29,80.09-179.93,178.65-179.93s178.83,80.64,178.83,179.93c0,64.55-80.46,202.42-142.81,297.87
		c-8.05,12.43-15.91,24.32-23.22,34.93c-4.57,6.58-8.78,12.8-12.8,18.47c-4.02-5.67-8.23-11.89-12.8-18.47
		c-7.13-10.61-14.99-22.49-23.22-34.93C153.6,723.57,73.14,585.69,73.14,521.14z M251.79,987.43c-81.74,0-138.61-35.29-138.61-66.93
		c0-24.14,33.1-50.47,85.03-61.44c21.21,31.63,36.57,52.66,38.77,55.77c3.47,4.75,8.96,7.5,14.81,7.5c5.85,0,11.52-2.74,14.81-7.5
		c2.19-3.11,17.55-24.14,38.77-55.77c51.93,10.97,85.21,37.3,85.21,61.44C390.58,952.14,333.53,987.43,251.79,987.43z
		 M755.75,134.77c0-54.13,43.7-98.19,97.46-98.19s97.65,44.07,97.65,98.19c0,35.47-44.43,112.09-80.46,167.13
		c-6.03,9.51-11.89,18.29-17.19,26.15c-5.3-7.86-11.15-16.64-17.19-26.15C800.18,246.86,755.75,170.42,755.75,134.77z
		 M853.21,401.19c-45.17,0-73.87-18.83-73.87-31.63c0-9.14,14.45-21.39,39.13-27.61c9.87,14.45,17.19,24.87,19.93,28.53
		c3.47,4.75,8.96,7.68,14.81,7.68s11.34-2.93,14.81-7.68c2.74-3.66,10.06-14.08,19.93-28.53c24.69,6.22,39.31,18.47,39.31,27.61
		C927.27,382.35,898.38,401.19,853.21,401.19z"/>
</g>
</svg>
