<?xml version="1.0" encoding="utf-8"?>
<!-- Generator: Adobe Illustrator 23.1.1, SVG Export Plug-In . SVG Version: 6.00 Build 0)  -->
<svg version="1.1" id="Layer_1" xmlns="http://www.w3.org/2000/svg" xmlns:xlink="http://www.w3.org/1999/xlink" x="0px" y="0px"
	 viewBox="0 0 1024 1024" style="enable-background:new 0 0 1024 1024;" xml:space="preserve">
<style type="text/css">
	.st0{fill:#FFFFFF;}
</style>
<g>
	<path class="st0" d="M127.97,193.78c0.26-0.03,23.45-4.41,36.58,14.66c0.28,0.41,0.75,0.55,1.06,0.93
		c1.27,1.57,2.75,2.85,4.46,3.93c0.64,0.4,1.18,0.88,1.86,1.19c2.36,1.11,4.91,1.86,7.67,1.86c0.01,0,0.02,0,0.03,0c0,0,0,0,0,0
		c0,0,0,0,0.01,0c0.3,0,0.6-0.01,0.9-0.03c0.37-0.02,0.67-0.22,1.03-0.26c1.69-0.18,3.33-0.59,4.95-1.26
		c0.69-0.28,1.31-0.59,1.95-0.95c0.49-0.28,1.03-0.4,1.5-0.73c0.59-0.4,0.9-1.01,1.42-1.47c0.96-0.83,1.82-1.67,2.59-2.68
		c0.71-0.94,1.27-1.9,1.78-2.95c0.51-1.04,0.94-2.06,1.25-3.19c0.34-1.23,0.48-2.43,0.55-3.7c0.04-0.69,0.34-1.3,0.3-2.01
		c-1.15-22.72,19.17-33.99,20.33-34.61c8.9-4.62,12.45-15.55,7.89-24.52c-4.56-9-15.56-12.62-24.58-8.03
		c-1.23,0.63-21.93,11.75-33.12,34.74c-22.91-11.39-46.2-7.09-47.55-6.82c-9.91,1.97-16.34,11.6-14.37,21.5
		C108.44,189.3,118.08,195.7,127.97,193.78z"/>
	<path class="st0" d="M609.05,274.66c0.88,0.47,21.5,11.73,20.34,34.62c-0.03,0.71,0.26,1.32,0.3,2.01
		c0.08,1.27,0.21,2.46,0.55,3.69c0.31,1.14,0.74,2.17,1.26,3.21c0.51,1.04,1.06,1.99,1.77,2.93c0.77,1.01,1.64,1.85,2.6,2.69
		c0.52,0.46,0.83,1.06,1.42,1.47c0.47,0.33,1.01,0.45,1.5,0.73c0.64,0.36,1.26,0.66,1.94,0.94c1.62,0.67,3.27,1.08,4.96,1.27
		c0.36,0.04,0.66,0.25,1.03,0.26c0.3,0.02,0.59,0.03,0.9,0.03c0,0,0.01,0,0.01,0l0,0c0.01,0,0.02,0,0.03,0
		c2.76,0,5.31-0.75,7.67-1.87c0.67-0.31,1.21-0.79,1.84-1.19c1.72-1.08,3.2-2.36,4.47-3.94c0.31-0.38,0.78-0.52,1.06-0.93
		c12.73-18.5,35.48-14.83,36.73-14.62c9.88,1.87,19.39-4.55,21.36-14.4c1.96-9.9-4.46-19.53-14.37-21.5
		c-1.34-0.25-24.63-4.55-47.55,6.83c-11.19-22.99-31.88-34.11-33.12-34.74c-8.95-4.54-19.78-0.97-24.41,7.91
		C596.71,258.94,600.2,269.94,609.05,274.66z"/>
	<path class="st0" d="M284.17,546.75c-8.96-4.75-19.93-1.28-24.69,7.5L179.4,704.37c-4.75,8.96-1.46,19.93,7.5,24.68
		c2.74,1.65,5.67,2.19,8.59,2.19c6.4,0,12.8-3.47,16.09-9.69l80.09-149.94C296.42,562.66,293.13,551.5,284.17,546.75z"/>
	<path class="st0" d="M1021.78,804.57L865.99,512.74c-0.55-1.28-1.28-2.56-2.01-3.66l-49.37-92.52
		c-14.26-26.88-40.96-42.97-71.49-42.97c-15.36,0-29.62,4.02-41.87,11.34c-12.25,7.5-22.49,18.29-29.8,31.64l-42.24,79.36
		c-0.55,0.91-1.1,1.83-1.46,2.74l-18.83,35.11l-142.26-266.6c-14.44-26.88-41.14-42.79-71.67-42.79c-30.35,0-57.23,15.91-71.5,42.79
		l-95.45,178.83c-0.73,0.91-1.28,2.19-1.65,3.29L2.22,869.12c-3.11,5.67-2.93,12.43,0.37,17.92c3.29,5.67,9.33,8.96,15.72,8.96
		h753.52c6.4,0,12.25-3.29,15.54-8.96c3.29-5.49,3.47-12.25,0.55-17.92l-20.11-37.67h86.34c0.05,0,0.1,0.02,0.16,0.02
		c0.06,0,0.12-0.02,0.18-0.02h88.87c0.05,0,0.1,0.02,0.16,0.02c0.06,0,0.12-0.02,0.18-0.02h62.01c6.4,0,12.43-3.29,15.72-8.78
		C1024.7,817.01,1024.89,810.24,1021.78,804.57z M703.81,433.74c7.86-14.81,22.49-23.59,39.31-23.59c16.64,0,31.45,8.78,39.31,23.59
		l35.11,65.83l0.04,0.07c-23.93-1.03-46.87,9.16-62.46,27.79c-2.61,3.11-5.86,3.21-7.53,3.06c-1.71-0.2-4.88-1.07-6.77-4.75
		l-4.44-8.67c-11.35-22.19-34.19-35.46-58.43-34.94l0.06-0.12L703.81,433.74z M355.67,284.53c7.86-14.81,22.67-23.59,39.31-23.59
		c16.82,0,31.45,8.78,39.31,23.59l68.02,127.27l-2.93-0.37c-35.84-5.49-71.13,12.62-87.58,44.98l-6.4,12.62
		c-3.29,6.22-8.96,10.24-15.91,10.97c-6.95,0.73-13.35-1.83-17.74-7.13c-20.84-24.87-51.2-38.58-83.38-37.12l-13.71,0.55
		L355.67,284.53z M741.29,859.43H266.07l20.66-38.76c4.75-8.96,1.28-20.11-7.5-24.87c-8.96-4.75-20.11-1.28-24.87,7.68l-29.8,55.95
		h-86.49l47.54-89.05c4.75-8.96,1.28-20.11-7.5-24.87c-8.96-4.75-20.11-1.28-24.87,7.68L96.57,859.43H48.85l205.88-385.64
		l35.11-1.46c20.84-0.91,40.41,7.86,53.76,23.95c10.97,12.98,26.88,20.48,43.52,20.48c2.19,0,4.39-0.18,6.4-0.37
		c19.02-2.19,35.66-13.71,44.43-30.72l6.4-12.43c9.33-18.47,29.26-28.71,49.37-25.6l30.17,4.57l64.36,120.5l20.66,38.77l97.82,183.4
		l19.57,36.57L741.29,859.43z M954.44,794.88l-37.98-71.16c-4.75-8.9-15.82-12.28-24.74-7.53c-8.91,4.76-12.28,15.84-7.53,24.74
		l28.79,53.94h-47.75l-19.27-36.09c-4.75-8.89-15.8-12.27-24.74-7.53c-8.91,4.76-12.28,15.84-7.53,24.74l10.08,18.88h-75.55
		L629.75,572.71l27.05-50.98l18.36-2.83c11.63-1.78,23.21,4.16,28.68,14.84l4.44,8.67c6.96,13.61,20.14,22.74,35.25,24.43
		c1.69,0.19,3.37,0.29,5.05,0.29c13.28,0,25.93-5.87,34.6-16.22c8.25-9.87,19.98-15.24,32.99-14.72l21.3,0.85l0.01,0.03
		l137.69,257.83H954.44z"/>
	<path class="st0" d="M817.76,577.65c-8.91,4.76-12.28,15.84-7.53,24.74l55.84,104.61c3.3,6.17,9.61,9.68,16.15,9.68
		c2.9,0,5.85-0.69,8.59-2.15c8.91-4.76,12.28-15.84,7.53-24.74L842.5,585.17C837.74,576.28,826.69,572.9,817.76,577.65z"/>
</g>
</svg>
