<?xml version="1.0" encoding="utf-8"?>
<!-- Generator: Adobe Illustrator 23.1.1, SVG Export Plug-In . SVG Version: 6.00 Build 0)  -->
<svg version="1.1" id="Layer_1" xmlns="http://www.w3.org/2000/svg" xmlns:xlink="http://www.w3.org/1999/xlink" x="0px" y="0px"
	 viewBox="0 0 1024 1024" style="enable-background:new 0 0 1024 1024;" xml:space="preserve">
<style type="text/css">
	.st0{fill:#FFFFFF;}
</style>
<g>
	<path class="st0" d="M933.67,277.94c39.68,0,72.04-32.18,72.04-71.86V72.05c0-39.68-32.37-72.05-72.04-72.05H90.15
		C50.47,0,18.29,32.37,18.29,72.05v134.03c0,39.68,32.18,71.86,71.86,71.86h68.57v306.65h-54.68c-40.23,0-73.14,32.73-73.14,73.14
		v146.65c0,40.41,32.92,73.14,73.14,73.14h54.68v16.82c0,71.5,58.15,129.65,129.64,129.65h447.09c71.5,0,129.65-58.15,129.65-129.65
		v-16.82h54.67c40.41,0,73.14-32.73,73.14-73.14V695.24c0-0.05,0.03-0.09,0.03-0.13c0-0.05-0.03-0.09-0.03-0.13v-37.24
		c0-40.41-32.73-73.14-73.14-73.14H865.1V277.94H933.67z M969.14,72.05v134.03c0,19.38-15.91,35.29-35.47,35.29h-86.86h-62.67V36.57
		h149.52C953.23,36.57,969.14,52.48,969.14,72.05z M672.73,241.37H561.92H461.9H351.27H276.3V36.57h471.28v204.8H672.73z
		 M654.45,404.3v36.57v124.34l-37.12,20.85l-37.12-20.85V440.87V404.3V277.94h74.24V404.3z M369.55,404.3V277.94h74.06V404.3v36.57
		v124.34l-36.94,20.85l-37.12-20.85V440.87V404.3z M543.63,277.94V404.3h-63.45V277.94H543.63z M342.31,591.91l55.41,31.09
		c2.74,1.46,5.85,2.38,8.96,2.38c2.92,0,6.03-0.91,8.78-2.38l55.41-31.09c5.85-3.29,9.33-9.33,9.33-15.91V440.87h63.45V576
		c0,6.58,3.47,12.62,9.33,15.91l55.4,31.09c2.74,1.46,5.85,2.38,8.96,2.38c3.11,0,6.03-0.91,8.96-2.38l55.41-31.09
		c5.67-3.29,9.33-9.33,9.33-15.91V440.87h51.2v196.21c0,34.56-28.16,62.72-62.9,62.72H344.5c-34.56,0-62.72-28.16-62.72-62.72
		V440.87h51.2V576C332.98,582.58,336.46,588.62,342.31,591.91z M54.86,206.08V72.05c0-19.57,15.91-35.47,35.29-35.47h149.58v204.8
		h-62.72H90.15C70.77,241.37,54.86,225.46,54.86,206.08z M104.05,840.96c-20.11,0-36.57-16.46-36.57-36.57v-91h45.62
		c10.1,0,18.29-8.18,18.29-18.29c0-10.11-8.19-18.29-18.29-18.29H67.47v-19.08c0-20.11,16.46-36.57,36.57-36.57h54.68v219.79H104.05
		z M919.77,621.17c20.11,0,36.57,16.46,36.57,36.57v19.08h-45.56c-10.1,0-18.29,8.18-18.29,18.29c0,10.11,8.19,18.29,18.29,18.29
		h45.56v91c0,20.11-16.46,36.57-36.57,36.57H865.1V621.17H919.77z M828.53,602.88v256.37v35.11c0,51.2-41.69,93.07-93.08,93.07
		H288.37c-51.38,0-93.07-41.87-93.07-93.07v-35.11V602.88V277.94h62.44c0.1,0,0.18,0.06,0.28,0.06c0.1,0,0.18-0.05,0.28-0.06h74.69
		V404.3H263.5c-10.24,0-18.29,8.05-18.29,18.29v214.49c0,54.67,44.43,99.29,99.29,99.29h334.81c54.86,0,99.47-44.62,99.47-99.29
		V422.58c0-10.24-8.23-18.29-18.29-18.29h-69.49V277.94h74.56c0.1,0,0.18,0.06,0.28,0.06c0.1,0,0.18-0.05,0.28-0.06h62.38V602.88z"
		/>
	<path class="st0" d="M740.19,830.09H283.67c-10.1,0-18.29,8.18-18.29,18.29s8.19,18.29,18.29,18.29h347.74v38.68
		c0,10.11,8.19,18.29,18.29,18.29c10.1,0,18.29-8.18,18.29-18.29v-38.68h72.2c10.1,0,18.29-8.18,18.29-18.29
		S750.29,830.09,740.19,830.09z"/>
</g>
</svg>
