<?xml version="1.0" encoding="utf-8"?>
<!-- Generator: Adobe Illustrator 23.1.1, SVG Export Plug-In . SVG Version: 6.00 Build 0)  -->
<svg version="1.1" id="Layer_1" xmlns="http://www.w3.org/2000/svg" xmlns:xlink="http://www.w3.org/1999/xlink" x="0px" y="0px"
	 viewBox="0 0 1024 1024" style="enable-background:new 0 0 1024 1024;" xml:space="preserve">
<style type="text/css">
	.st0{fill:#FFFFFF;}
</style>
<path class="st0" d="M680.89,649.87L991,556.4c43.99-13.26,43.99-75.55,0-88.81l-310.11-93.46c-14.89-4.49-26.54-16.14-31.02-31.02
	L556.41,33C543.15-11,480.85-11,467.59,33l-93.46,310.11c-4.49,14.89-16.14,26.54-31.02,31.02L33,467.59
	c-43.99,13.26-44,75.55,0,88.81l310.11,93.47c14.89,4.49,26.54,16.14,31.02,31.02L467.59,991c13.26,43.99,75.55,43.99,88.81,0
	l93.46-310.11C654.36,666.01,666,654.36,680.89,649.87z"/>
</svg>
