<?xml version="1.0" encoding="utf-8"?>
<!-- Generator: Adobe Illustrator 23.1.1, SVG Export Plug-In . SVG Version: 6.00 Build 0)  -->
<svg version="1.1" id="Layer_1" xmlns="http://www.w3.org/2000/svg" xmlns:xlink="http://www.w3.org/1999/xlink" x="0px" y="0px"
	 viewBox="0 0 1024 1024" style="enable-background:new 0 0 1024 1024;" xml:space="preserve">
<style type="text/css">
	.st0{fill:#FFFFFF;}
</style>
<g>
	<path class="st0" d="M1015.44,59.34c-5.28-3.28-12.02-3.64-17.67-0.91l-237.9,115.31L521.97,58.43c-0.21-0.09-0.45-0.12-0.66-0.21
		c-0.35-0.15-0.72-0.21-1.08-0.34c-0.74-0.27-1.44-0.62-2.27-0.72c-1.28-0.36-2.55-0.54-4.01-0.54s-2.73,0.18-4.01,0.54
		c-0.83,0.1-1.53,0.45-2.27,0.72c-0.36,0.13-0.74,0.19-1.08,0.34c-0.21,0.09-0.45,0.12-0.66,0.21l-237.9,115.31L30.15,58.43
		c-5.65-2.73-12.39-2.37-17.67,0.91C7.2,62.8,3.92,68.63,3.92,74.82v755.04c0,7.1,4.01,13.48,10.2,16.39l245.91,119.31
		c0.21,0.09,0.45,0.12,0.66,0.21c0.35,0.16,0.73,0.21,1.09,0.35c0.74,0.27,1.44,0.62,2.26,0.72c1.28,0.37,2.55,0.55,4.01,0.55
		c1.46,0,2.73-0.18,4.01-0.55c0.82-0.1,1.52-0.45,2.26-0.72c0.36-0.13,0.74-0.19,1.09-0.35c0.21-0.09,0.45-0.12,0.66-0.21
		l237.9-115.3l237.9,115.3c2.37,1.09,5.1,1.82,8.01,1.82c2.91,0,5.65-0.73,8.01-1.82l245.91-119.31c6.19-2.91,10.2-9.29,10.2-16.39
		V74.82C1024,68.63,1020.72,62.8,1015.44,59.34z M987.57,440.96l-99.46,48.27c3.46-11.66,5.28-22.23,5.28-31.33
		c0-67.76-50.28-124.05-115.31-132.79v-119.5l209.48-101.64V440.96z M812.88,566.1c-11.29,19.67-23.32,39.35-34.79,56.83
		c-6.38,10.02-12.57,19.31-18.22,27.51c-5.65-8.2-11.84-17.49-18.22-27.51c-11.48-17.49-23.5-37.16-34.79-56.83
		c-10.57-18.4-20.4-36.98-28.05-54.1c-9.84-21.68-16.03-40.8-16.03-54.1c0-47.54,33.88-87.43,78.87-96
		c5.83-1.28,12.02-1.82,18.22-1.82s12.39,0.55,18.22,1.82c44.99,8.56,78.87,48.45,78.87,96c0,13.3-6.19,32.43-16.03,54.1
		C833.28,529.12,823.44,547.7,812.88,566.1z M741.66,325.11c-65.03,8.74-115.31,65.03-115.31,132.79c0,9.11,1.82,19.67,5.28,31.33
		l-99.46-48.27V103.97l209.48,101.64V325.11z M495.74,440.96L286.26,542.6V205.61l209.48-101.64V440.96z M40.35,103.97
		l209.48,101.64V542.6L40.35,440.96V103.97z M40.35,481.58l209.48,101.46v337.17L40.35,818.57V481.58z M286.26,583.04L495.74,481.4
		v336.99L286.26,920.03V583.04z M532.18,481.4l119.5,57.93c29.15,61.2,75.41,128.05,89.99,148.64v232.07L532.18,818.39V481.4z
		 M987.57,818.57L778.09,920.21V687.96c14.57-20.58,60.84-87.43,89.99-148.64l119.5-57.75V818.57z"/>
	<path class="st0" d="M778.09,391.78c-5.83-1.64-11.84-2.55-18.22-2.55s-12.39,0.91-18.22,2.55c-29.15,7.83-50.46,34.61-50.46,66.12
		c0,31.52,21.31,58.29,50.46,66.31c5.83,1.64,11.84,2.55,18.22,2.55s12.39-0.91,18.22-2.55c29.15-8.01,50.46-34.79,50.46-66.31
		C828.55,426.39,807.23,399.61,778.09,391.78z M778.09,484.68c-5.1,3.46-11.48,5.65-18.22,5.65s-13.12-2.19-18.22-5.65
		c-8.56-5.83-14.03-15.67-14.03-26.78c0-10.93,5.46-20.76,14.03-26.59c5.1-3.46,11.48-5.65,18.22-5.65s13.12,2.19,18.22,5.65
		c8.56,5.83,14.03,15.67,14.03,26.59C792.11,469.01,786.65,478.85,778.09,484.68z"/>
</g>
</svg>
