<?xml version="1.0" encoding="utf-8"?>
<!-- Generator: Adobe Illustrator 23.1.1, SVG Export Plug-In . SVG Version: 6.00 Build 0)  -->
<svg version="1.1" id="Layer_1" xmlns="http://www.w3.org/2000/svg" xmlns:xlink="http://www.w3.org/1999/xlink" x="0px" y="0px"
	 viewBox="0 0 1024 1024" style="enable-background:new 0 0 1024 1024;" xml:space="preserve">
<style type="text/css">
	.st0{fill:#FFFFFF;}
</style>
<path class="st0" d="M451.96,337.17l41,136.03c5.82,19.3,33.14,19.3,38.96,0l41-136.03c1.97-6.53,7.08-11.64,13.61-13.61l136.03-41
	c19.3-5.82,19.3-33.14,0-38.96l-136.03-41c-6.53-1.97-11.64-7.08-13.61-13.61L531.91,52.98c-5.82-19.3-33.14-19.3-38.96,0
	l-41,136.03c-1.97,6.53-7.08,11.64-13.61,13.61l-136.03,41c-19.3,5.82-19.3,33.14,0,38.96l136.03,41
	C444.88,325.53,449.99,330.64,451.96,337.17z"/>
<path class="st0" d="M164.11,834.99l41,136.03c5.82,19.3,33.14,19.3,38.96,0l41-136.03c1.97-6.53,7.08-11.64,13.61-13.61l136.03-41
	c19.3-5.82,19.3-33.14,0-38.96l-136.03-41c-6.53-1.97-11.64-7.08-13.61-13.61L244.06,550.8c-5.82-19.3-33.14-19.3-38.96,0
	l-41,136.03c-1.97,6.53-7.08,11.64-13.61,13.61l-136.03,41c-19.3,5.82-19.3,33.14,0,38.96l136.03,41
	C157.03,823.35,162.14,828.46,164.11,834.99z"/>
<path class="st0" d="M738.94,834.99l41,136.03c5.82,19.3,33.14,19.3,38.96,0l41-136.03c1.97-6.53,7.08-11.64,13.61-13.61l136.03-41
	c19.3-5.82,19.3-33.14,0-38.96l-136.03-41c-6.53-1.97-11.64-7.08-13.61-13.61L818.9,550.8c-5.82-19.3-33.14-19.3-38.96,0l-41,136.03
	c-1.97,6.53-7.08,11.64-13.61,13.61l-136.03,41c-19.3,5.82-19.3,33.14,0,38.96l136.03,41C731.86,823.35,736.97,828.46,738.94,834.99
	z"/>
</svg>
