<?xml version="1.0" encoding="utf-8"?>
<!-- Generator: Adobe Illustrator 23.1.1, SVG Export Plug-In . SVG Version: 6.00 Build 0)  -->
<svg version="1.1" id="Layer_1" xmlns="http://www.w3.org/2000/svg" xmlns:xlink="http://www.w3.org/1999/xlink" x="0px" y="0px"
	 viewBox="0 0 1024 1024" style="enable-background:new 0 0 1024 1024;" xml:space="preserve">
<style type="text/css">
	.st0{fill:#FFFFFF;}
</style>
<path class="st0" d="M291.74,571.07l132.87-40.05c18.85-5.68,18.85-32.37,0-38.05l-132.87-40.05c-6.38-1.92-11.37-6.91-13.29-13.29
	L238.4,306.77c-5.68-18.85-32.37-18.85-38.05,0L160.3,439.64c-1.92,6.38-6.91,11.37-13.29,13.29L14.14,492.97
	c-18.85,5.68-18.85,32.37,0,38.05l132.87,40.05c6.38,1.92,11.37,6.91,13.29,13.29l40.05,132.87c5.68,18.85,32.37,18.85,38.05,0
	l40.05-132.87C280.37,577.99,285.36,573,291.74,571.07z"/>
<path class="st0" d="M876.99,571.07l132.87-40.05c18.85-5.68,18.85-32.37,0-38.05l-132.87-40.05c-6.38-1.92-11.37-6.91-13.29-13.29
	l-40.05-132.87c-5.68-18.85-32.37-18.85-38.05,0l-40.05,132.87c-1.92,6.38-6.91,11.37-13.29,13.29l-132.87,40.04
	c-18.85,5.68-18.85,32.37,0,38.05l132.87,40.05c6.38,1.92,11.37,6.91,13.29,13.29l40.05,132.87c5.68,18.85,32.37,18.85,38.05,0
	l40.05-132.87C865.62,577.99,870.61,573,876.99,571.07z"/>
</svg>
